# xmcd
#
# Track frame offsets:
#	150
#	14782
#	30460
#	46087
#	69087
#	87197
#	108257
#	127135
#	142217
#	158412
#	175610
#
# Disc length: 2582 seconds
#
# Revision: 0
# Processed by: cddbd v1.5.2PL0 Copyright (c) Steve Scherf et al.
# Submitted via: EZCDAudioConverter 7.0.0.1
#
DISCID=870a140b
DTITLE=Houserockers featuring Jimmie Bluesman Lawson
DYEAR=1997
DGENRE=
TTITLE0=Done got over it
TTITLE1=Feel so bad
TTITLE2=Bloodshot eyes
TTITLE3=Hard times
TTITLE4='Cause jealousy
TTITLE5=Little by little
TTITLE6=Play the blues for you
TTITLE7=Blues is killing me
TTITLE8=Zydecoman
TTITLE9=Crosscut saw
TTITLE10=Just a feeling
EXTD=
EXTT0=
EXTT1=
EXTT2=
EXTT3=
EXTT4=
EXTT5=
EXTT6=
EXTT7=
EXTT8=
EXTT9=
EXTT10=
PLAYORDER=
